<svg width="16" height="16" xmlns="http://www.w3.org/2000/svg">
 <!-- Created with Method Draw - http://github.com/duopixel/Method-Draw/ -->
 <g>
  <title>background</title>
  <rect fill="none" id="canvas_background" height="18" width="18" y="-1" x="-1"/>
  <g display="none" overflow="visible" y="0" x="0" height="100%" width="100%" id="canvasGrid">
   <rect fill="url(#gridpattern)" stroke-width="0" y="0" x="0" height="100%" width="100%"/>
  </g>
 </g>
 <g>
  <title>Layer 1</title>
  <path id="svg_1" d="m13.687488,12.33382l-3.050967,-3.167954c0.41102,-0.703743 0.652066,-1.527073 0.652494,-2.409974c-0.000428,-2.575352 -2.00886,-4.66124 -4.487824,-4.662129c-2.479392,0.000889 -4.48868,2.086777 -4.48868,4.661685c0,2.573574 2.009288,4.659462 4.48868,4.659462c0.850726,0 1.643652,-0.250289 2.321406,-0.677069l3.051823,3.168398l1.513067,-1.572418zm-9.662822,-5.578373c0.002569,-1.592424 1.242907,-2.879877 2.776097,-2.883434c1.532334,0.003557 2.773528,1.29101 2.776097,2.883434c-0.002997,1.591535 -1.243763,2.878988 -2.776097,2.882545c-1.53319,-0.003557 -2.773528,-1.29101 -2.776097,-2.882545z" stroke-width="1.5" stroke="#b2b2b2" fill="#b2b2b2"/>
  <path id="svg_2" d="m-23.326859,3.454348l-0.03563,-0.03563c0.0048,-0.007915 0.007615,-0.017175 0.00762,-0.027105c-0.000005,-0.028965 -0.02346,-0.052425 -0.05241,-0.052435c-0.028955,0.00001 -0.05242,0.02347 -0.05242,0.05243c0,0.028945 0.023465,0.052405 0.05242,0.052405c0.009935,0 0.019195,-0.002815 0.02711,-0.007615l0.03564,0.035635l0.01767,-0.017685zm-0.112845,-0.06274c0.00003,-0.01791 0.014515,-0.03239 0.03242,-0.03243c0.017895,0.00004 0.03239,0.01452 0.03242,0.03243c-0.000035,0.0179 -0.014525,0.03238 -0.03242,0.03242c-0.017905,-0.00004 -0.03239,-0.01452 -0.03242,-0.03242z" stroke-width="1.5" stroke="#b2b2b2" fill="#b2b2b2"/>
 </g>
</svg>